# xmcd
#
# Track frame offsets: 
#        150
#        14010
#        30223
#        68832
#        100365
#        126862
#        165201
#        195548
#
# Disc length: 3045 seconds
#
# Revision: 0
# Processed by: cddbd v1.5.2PL0 Copyright (c) Steve Scherf et al.
# Submitted via: ExactAudioCopy v0.95b4
#
DISCID=5d0be308
DTITLE=Mario Lopez vs DJ Headhunter - What are you lookng and Missing 20
DTITLE=03
DYEAR=2002
DGENRE=
TTITLE0=What are u looking (original mix)
TTITLE1=Missing 2002 (TBC special radio edit)
TTITLE2=What are u looking (Original Club Mix)
TTITLE3=What are u looking (Oktane meets Mario Lopez Mix))
TTITLE4=What are u looking (DJ Headhunter vs D-Gor)
TTITLE5=What are u looking (DJ Manian vs Triffid Rmx)
TTITLE6=Missing 2002 (Special Club Mix)
TTITLE7=Missing 2002 (Original Club Mix)
EXTD=
EXTT0=
EXTT1=
EXTT2=
EXTT3=
EXTT4=
EXTT5=
EXTT6=
EXTT7=
PLAYORDER=
